<svg xmlns="http://www.w3.org/2000/svg" viewBox="0 0 64 64" fill="none">
  <defs>
    <linearGradient id="g1" x1="0%" y1="0%" x2="100%" y2="100%">
      <stop offset="0%" stop-color="#4fb8b2"/>
      <stop offset="100%" stop-color="#7ed3bf"/>
    </linearGradient>
    <linearGradient id="g2" x1="0%" y1="0%" x2="100%" y2="100%">
      <stop offset="0%" stop-color="#173a40"/>
      <stop offset="100%" stop-color="#2f6a4a"/>
    </linearGradient>
  </defs>
  <!-- Background -->
  <rect width="64" height="64" rx="14" fill="url(#g2)"/>
  <rect width="64" height="64" rx="14" fill="none" stroke="url(#g1)" stroke-width="1.5" opacity="0.5"/>

  <!-- Left brace { -->
  <path d="M18 14 C13 14,11 17,11 21 L11 28 C11 31,8 32,8 32 C8 32,11 33,11 36 L11 43 C11 47,13 50,18 50"
    stroke="url(#g1)" stroke-width="3" stroke-linecap="round" fill="none"/>

  <!-- Right brace } -->
  <path d="M46 14 C51 14,53 17,53 21 L53 28 C53 31,56 32,56 32 C56 32,53 33,53 36 L53 43 C53 47,51 50,46 50"
    stroke="url(#g1)" stroke-width="3" stroke-linecap="round" fill="none"/>

  <!-- F letter -->
  <rect x="22" y="24" width="2.5" height="16" rx="1.2" fill="white"/>
  <rect x="22" y="24" width="9" height="2.5" rx="1.2" fill="white"/>
  <rect x="22" y="31" width="7" height="2.2" rx="1" fill="white"/>

  <!-- C letter -->
  <path d="M35 26 C38 23,43 24,44 27.5" stroke="white" stroke-width="2.5" stroke-linecap="round" fill="none"/>
  <path d="M35 38 C38 41,43 40,44 36.5" stroke="white" stroke-width="2.5" stroke-linecap="round" fill="none"/>
  <line x1="35" y1="26" x2="35" y2="38" stroke="white" stroke-width="2.5" stroke-linecap="round"/>
</svg>
